<svg id="Layer_1" xmlns="http://www.w3.org/2000/svg" xmlns:xlink="http://www.w3.org/1999/xlink" viewBox="0 0 518 120.6"><style>.st0{clip-path:url(#SVGID_2_);fill:#007078}.st1{fill:#010101}.st1,.st2,.st3,.st4{clip-path:url(#SVGID_2_)}.st2{fill-rule:evenodd;clip-rule:evenodd;fill:#007078}.st3,.st4{fill:#fff}.st4{fill:#231f20}</style><defs><path id="SVGID_1_" d="M0 0h518v116.3H0z"/></defs><clipPath id="SVGID_2_"><use xlink:href="#SVGID_1_" overflow="visible"/></clipPath><path class="st0" d="M516.5 77.7H1.6c-.3 0-.5-.2-.5-.5s.2-.5.5-.5h514.9c.3 0 .5.2.5.5s-.3.5-.5.5M20.2 6.6c0-.9.3-1.4.7-1.6.7-.2 2-.3 3.2-.3 1.9 0 5.3.5 8.3 3.2 3.2 2.8 4.3 6.3 4.7 9 3.2-.7 6.5-1.3 9.9-1.8-.2-4.2-2.4-7.7-4.1-9.3-1.3-1.2-5.1-4.7-15.5-4.7-3.8 0-8.6.2-12.1.2-2.3 0-7.6-.2-12-.2-1.2 0-1.8.2-1.8.7 0 .6.5.7 1.4.7 1.2 0 2.6.1 3.2.2 2.9.8 3.6 2.1 3.7 4.9.2 2.6.2 4.9.2 17.4v.6c2.9-1.2 6.3-2.6 10.2-4v-15z"/><path class="st1" d="M10 39.5c0 7.6 0 14.1-.4 17.5-.3 2.4-.8 4.2-2.4 4.5-.8.2-1.7.3-3 .3-1 0-1.3.2-1.3.7 0 .6.6.8 1.7.8 3.3 0 8.6-.3 10.5-.3 2.2 0 7.4.3 12.9.3.9 0 1.6-.3 1.6-.8 0-.4-.4-.7-1.3-.7-1.2 0-3.1-.2-4.2-.3-2.5-.3-3-2.1-3.2-4.4-.4-3.5-.4-10-.4-17.6v-14c-4 1.4-7.5 2.8-10.2 4.1v9.9zM26.2 33.8c-1.7 0-2.3.2-2.3.9 0 .6.6.7 1 .7.4.1 1.3.1 1.7.1 10.7 0 18.7-6.7 20.2-16.7-3.3.5-6.5 1.1-9.5 1.7-.1 8.3-6.5 13.3-11.1 13.3M84 20.1c0 6.8-2.4 10.5-4.9 12.4-1.5 1.1-2.6 1.4-5.9 1.4-2.1 0-4.6-.2-6.3-.8-.6-.2-.7-.6-.7-1.5V17.4c-3.4 0-6.6.1-9.8.4v21.7c0 7.6 0 14.1-.4 17.5-.3 2.4-.7 4.2-2.4 4.5-.8.2-1.7.3-3 .3-1 0-1.3.2-1.3.7 0 .6.6.8 1.7.8 3.3 0 8.6-.3 10.1-.3 1.2 0 7.4.3 12.2.3 1.1 0 1.7-.3 1.7-.8 0-.4-.3-.7-1-.7-1 0-2.8-.2-4.1-.3-2.5-.3-3-2.1-3.2-4.5-.4-3.5-.4-10-.4-17.6v-1.2c0-.5.2-.7.7-.7l7.2.2c.6 0 1.1.1 1.5.6 1.1 1.2 4.9 6.8 8.2 11.4 4.7 6.3 7.8 10.2 11.4 12.1 2.2 1.2 4.2 1.6 8.9 1.6h7.9c1 0 1.6-.2 1.6-.8 0-.4-.3-.7-1-.7s-1.4-.1-2.3-.2c-1.3-.2-4.7-.8-9.3-5.6C96 51 90.2 43.6 82.8 34.4c6.4-5.1 9.4-9.6 10.5-14.1-3.2-.7-6.3-1.2-9.4-1.6.1.4.1.9.1 1.4"/><path class="st0" d="M66.1 13.8V6.5c0-.7.2-1 .7-1.2.9-.2 2.4-.3 4.5-.3 4.1 0 10.1 2.3 12.1 9.8 3.4.4 6.9 1 10.4 1.7v-.6c0-5.5-3.3-9.7-5.7-11.3-4.5-3-10.1-3.5-15.3-3.5-2.6 0-8.9.2-11.7.2-1.7 0-7-.2-11.4-.2-1.2 0-1.8.2-1.8.7 0 .6.5.7 1.4.7 1.2 0 2.6.1 3.2.2 2.7.6 3.4 1.9 3.6 4.7.1 1.6.1 3 .2 6.6 3.2-.1 6.5-.2 9.8-.2M159.8 42.6c3.2.9 6.4 1.7 9.6 2.4 1.8-4.3 2.8-9.1 2.8-14.2 0-18.9-12.9-30.8-33.6-30.8-18 0-27.9 9.5-32 20.1 3.1 1 6.3 2.2 9.5 3.5 5.8 5.1 42.8 20.4 43.7 19"/><path class="st1" d="M115.8 27.3c-3.5-1.4-6.9-2.7-10.4-3.8-.8 3-1.2 5.9-1.2 8.7 0 14.6 9.6 32.3 33.5 32.3 13.9 0 24.3-6.5 29.9-16.2-2.9-.6-5.8-1.4-8.7-2.2-3.1-2.2-42.2-19.5-43.1-18.8"/><path class="st0" d="M196.5 25.9l-2.3-1.7c-6.9-5.2-8.8-8.1-8.8-11.9 0-4.9 3.7-8.5 9.9-8.5 5.4 0 7.8 2.5 9.1 4 1.7 2.1 2.2 4.7 2.2 5.4 0 1 .3 1.5.8 1.5.7 0 .9-.7.9-2.5 0-6.4.3-8.8.3-9.9 0-.6-.4-.8-1.2-1-2.2-.6-5.7-1.4-11.1-1.4-11.6 0-19.2 6.5-19.2 15.6 0 6.7 3.2 12.4 12.3 19.5l3.8 3c4.8 3.7 6.8 6.7 7.7 9.5 3.2-.2 6.2-.4 9.2-.8 0-7.7-3.6-13.4-13.6-20.8"/><path class="st1" d="M201.4 51.2c0 4.4-3.7 9.4-11.1 9.4-5.2 0-10.1-2.2-11.9-8.3-.2-.7-.4-1.4-.5-2.2l-2.1-.3c-.1 2-.4 6-.4 9.8 0 1.8.2 2.2 1.6 2.8 3.6 1.6 7.3 2.1 12.1 2.1 4.4 0 9.1-.7 13.2-3.4 4.5-2.9 6.7-6.9 7.5-10.7-2.7.4-5.5.6-8.4.8z"/><path class="st0" d="M233.2 39.5V6.6c0-.9.2-1.4.7-1.6.8-.2 2-.3 3.2-.3 1.9 0 5.3.5 8.3 3.2 4.7 4.1 4.9 9.6 4.9 12.4 0 8.4-6.5 13.6-11.1 13.6-1.7 0-2.3.2-2.3.9 0 .6.6.7 1 .7.4.1 1.3.1 1.7.1 11.8 0 20.5-8.2 20.5-19.9 0-4.4-2.3-8.1-4.2-9.8-1.3-1.2-5.1-4.7-15.5-4.7-3.8 0-8.6.2-12.1.2-2.3 0-7.6-.2-12-.2-1.2 0-1.8.2-1.8.7 0 .6.5.7 1.4.7 1.2 0 2.6.1 3.2.2 2.7.6 3.4 1.9 3.6 4.7.2 2.6.2 4.9.2 17.5v19.5c3.6-.8 7-1.8 10.2-2.8v-2.2z"/><path class="st1" d="M222.6 57.1c-.3 2.4-.8 4.2-2.4 4.5-.8.2-1.7.3-3 .3-1 0-1.3.2-1.3.7 0 .6.6.8 1.7.8 3.3 0 8.6-.2 10.5-.2 2.2 0 7.4.2 12.9.2.9 0 1.6-.2 1.6-.8 0-.4-.4-.7-1.3-.7-1.2 0-3.1-.2-4.2-.3-2.5-.3-3-2.1-3.2-4.4-.3-2.6-.4-6.7-.4-11.6-3.2 1-6.6 1.9-10.3 2.7-.3 3.7-.4 6.7-.6 8.8M269.3 39.5c0 7.6 0 14.1-.4 17.5-.3 2.4-.8 4.2-2.4 4.5-.7.2-1.7.3-3 .3-1 0-1.3.2-1.3.7 0 .6.6.8 1.7.8 1.7 0 3.8-.2 5.7-.2 2-.1 3.8-.1 4.7-.1 2.5 0 5.1.1 8.7.3 3.6.1 8.1.2 14.4.2 3.2 0 3.9 0 4.5-2.1.4-1.6 1.1-7.2 1.1-9.1 0-.8 0-1.5-.7-1.5-.6 0-.7.3-.9 1.2-.6 3.4-1.6 5.1-3.7 6.1-2.2 1-5.6 1-7.8 1-8.5 0-9.8-1.2-10-6.9-.1-2.4 0-10 0-12.8V33c0-.5.1-.8.5-.8 2 0 10.2.1 11.8.2 3.1.3 4.2 1.6 4.6 3.2.3 1.1.3 2.1.3 3 0 .4.2.7.7.7.8 0 .8-.9.8-1.6 0-.6.2-3.9.3-5.5.3-4.2.7-5.5.7-6s-.3-.7-.6-.7c-.4 0-.7.4-1.3 1.1-.8.8-2 1.1-4 1.2-1.9.2-11.5.2-13.3.2-.5 0-.6-.3-.6-.9v-2.9c-3.8 1.4-7.3 2.9-10.5 4.5v10.8z"/><path class="st0" d="M279.8 6.3c0-.6.2-.8.6-.8 1.7 0 10.4.2 11.8.3 4.2.5 5 1.5 5.6 3 .4 1 .5 2.4.5 3 0 .7.2 1.2.7 1.2.6 0 .7-.5.8-.9.2-1 .3-4.6.4-5.4.3-3.8.7-4.8.7-5.4 0-.4-.1-.7-.5-.7s-.9.2-1.3.3c-.7.2-2 .3-3.6.5-1.6.1-18.1.1-20.8.1-1.2 0-3.1-.1-5.2-.2-2.1 0-4.5-.1-6.7-.1-1.2 0-1.8.2-1.8.7 0 .6.5.7 1.4.7 1.2 0 2.6.1 3.2.2 2.7.6 3.4 1.9 3.6 4.7.2 2.6.2 4.9.2 17.1 3.2-1.5 6.7-3 10.5-4.4V6.3z"/><path class="st1" d="M371.4 62.6c0-.2.1-.4.4-.5-.2-.1-.3-.1-.6-.1-.7 0-1.4-.1-2.3-.2-1.2-.2-4.7-.8-9.3-5.6-4.9-5.1-10.6-12.4-18-21.7 6.3-5.1 9.3-9.5 10.5-14-3.2-.8-6.3-1.4-9.4-1.9 0 .5.1 1 .1 1.6 0 6.8-2.4 10.5-4.9 12.4-1.5 1.1-2.6 1.4-5.9 1.4-2.1 0-4.6-.2-6.3-.8-.6-.2-.7-.6-.7-1.5v-15c-3.4-.1-6.6 0-9.8.1v22.7c0 7.6 0 14.1-.4 17.5-.3 2.4-.7 4.2-2.4 4.5-.7.2-1.7.3-3 .3-1 0-1.3.2-1.3.7 0 .6.6.8 1.7.8 3.3 0 8.6-.3 10.1-.3 1.2 0 7.4.3 12.2.3 1.1 0 1.7-.3 1.7-.8 0-.4-.3-.7-1-.7-1 0-2.8-.2-4.1-.3-2.5-.3-3-2.1-3.2-4.5-.4-3.5-.4-10-.4-17.6v-1.2c0-.5.2-.7.7-.7l7.2.2c.6 0 1.1.1 1.5.6 1.1 1.2 4.9 6.8 8.2 11.4 4.7 6.3 7.8 10.2 11.4 12.1 2.2 1.2 4.2 1.6 8.9 1.6h7.9c.5 0 .9-.1 1.2-.2-.5-.1-.7-.3-.7-.6"/><path class="st0" d="M324.9 13.1V6.5c0-.7.2-1 .7-1.2.9-.2 2.4-.3 4.4-.3 4 0 10 2.3 12 9.6 3.4.5 6.9 1.2 10.5 2.1v-.8c0-5.5-3.3-9.7-5.7-11.3-4.5-3-10.1-3.5-15.3-3.5-2.6 0-8.9.2-11.7.2-1.7 0-7-.2-11.4-.2-1.2 0-1.8.2-1.8.7 0 .6.5.7 1.4.7 1.2 0 2.6.1 3.2.2 2.7.6 3.4 1.9 3.6 4.7.1 1.4.1 2.8.2 5.6 3.2 0 6.5 0 9.9.1"/><path class="st1" d="M378.6 29.6v9.9c0 8 0 14.5-.4 17.9-.3 2.4-.7 3.8-2.4 4.1-.7.2-1.7.3-3 .3-.4 0-.7.1-.9.1-.3.1-.4.3-.4.5 0 .3.2.5.5.6.3.1.7.2 1.2.2 3.3 0 8.6-.3 10.5-.3 2.2 0 7.5.3 13 .3.9 0 1.6-.3 1.6-.8 0-.4-.4-.7-1.3-.7-1.2 0-3.1-.2-4.2-.3-2.5-.3-3.1-1.8-3.3-4-.3-3.5-.3-10-.3-18v-5c-.6-.3-1.1-.5-1.6-.8-3.3-1.4-6.2-2.7-9-4"/><path class="st0" d="M388.9 25c0-12.5 0-14.8.2-17.5.2-2.9.8-4.3 3.1-4.7 1-.2 1.7-.2 2.5-.2s1.3-.2 1.3-.8c0-.5-.7-.7-1.8-.7-3.2 0-8.1.2-10.1.2-2.4 0-7.6-.2-10.8-.2-1.3 0-2 .2-2 .7 0 .7.5.8 1.3.8 1 0 2.1.1 3 .3 1.8.4 2.7 1.8 2.8 4.6.2 2.6.2 4.9.2 17.5v.5c3.4 1.5 6.8 3.1 10.3 4.9V25zM432.6 39.5V5.8l10.5.2c7.4.2 9.6 2.5 9.8 4.6l.1.9c.1 1.2.3 1.6.9 1.6.5 0 .7-.5.7-1.3 0-2 .2-7.2.2-9.2h-.1c-.7 0-1.2-.2-1.2-.7 0-.4.5-.7 1.2-.7-.1-.4-.2-.6-.6-.6-.3 0-1 .2-2.2.4-1.3.2-3.1.4-5.7.4h-32.9c-2.7 0-5.9-.2-8.3-.4-2.1-.2-2.9-1-3.6-1-.5 0-.7.5-1 1.6-.2.7-1.7 8.2-1.7 9.5 0 .9.2 1.3.7 1.3.5 0 .7-.3.9-1 .2-.7.6-1.6 1.4-2.9 1.2-1.8 3.2-2.2 8.1-2.4l12.4-.3v37.3c3.5.9 7 1.6 10.4 2.2v-5.8"/><path class="st1" d="M421.8 57.1c-.3 2.4-.7 4.2-2.4 4.5-.7.2-1.7.3-3 .3-1 0-1.3.2-1.3.7 0 .6.6.8 1.7.8 3.3 0 8.6-.2 10.5-.2 2.3 0 7.6.2 13.1.2.9 0 1.6-.2 1.6-.8 0-.4-.4-.7-1.3-.7-1.2 0-3.1-.2-4.2-.3-2.5-.3-3-2.1-3.2-4.4-.2-1.9-.3-4.7-.4-8-3.4-.6-6.9-1.3-10.5-2.2-.3 4.3-.3 7.8-.6 10.1M498.9 61.9c-1.2 0-3-.2-4.2-.3-2.5-.3-3.2-2.1-3.4-4.5-.2-3.5-.2-6.9-.2-8.2V46c-3.3.9-6.8 1.8-10.5 2.5v.3c0 1.3 0 4.8-.2 8.2-.2 2.4-.9 4.2-2.6 4.5-.7.2-1.7.3-2.9.3-.9 0-1.3.2-1.3.7 0 .7.7.8 1.8.8 3.1 0 8.3-.3 10.4-.3 2.2 0 7.5.3 12.7.3 1.1 0 1.7-.3 1.7-.8 0-.3-.4-.6-1.3-.6"/><path class="st0" d="M453.6 1.9c0 .6.6.7 1.2.7h.1c1 0 2.4.5 3.4 1.1 1.6.9 3.7 3 5.7 6 2.9 4.3 14 22.4 14.6 23.7 1.1 2.4 1.9 4.2 1.9 8.6v2.7c3.7-.7 7.2-1.6 10.5-2.5V42c0-2.7 0-5.3 1.2-8.2 1.5-3.5 13.1-22.9 15.9-26.2 1.8-2.2 2.7-3.2 4.5-4 1.2-.7 2.8-1 3.7-1 .9 0 1.6-.2 1.6-.8 0-.5-.6-.7-1.5-.7-1.6 0-7.1.2-8.9.2-2.4 0-5.1-.2-7.8-.2-1 0-1.4.2-1.4.7 0 .5.8.7 1.5.8 1.4.3 1.7 1.2 1.7 2.1 0 1.1-.3 2.5-1.2 4.3-1.2 2.6-11.6 20.7-12.5 22.6-1.3-2.3-13-22.1-14.1-24.6-.6-1.2-1-2.1-1-2.8 0-.7.4-1.3 1.2-1.5 1.2-.3 1.8-.4 1.8-.9s-.4-.7-1.2-.7c-3.7 0-7.1.2-8.9.2-2.7 0-9-.2-10.5-.2h-.4c-.7.1-1.1.4-1.1.8"/><path class="st2" d="M137.5 2.7l-9.4 9.2V6.4h-8.3V20l-9.9 9.7v3h5.1v23.8h45V32.7h5.1v-3l-27.6-27zm7.9 45.4h-15.9V34.4h15.9v13.7z"/><path class="st3" d="M160.4 56.9h-45.9V33.2h-5.1v-3.6l9.9-9.7V6h9.1v4.9l9-8.8 28 27.5v3.6h-5.1v23.7zm-45-.8h44.2V32.3h5.1v-2.4L137.5 3.3l-9.8 9.6v-6h-7.4v13.3l-9.9 9.7v2.4h5.1v23.8zm30.5-7.6h-16.8V34h16.8v14.5zm-16-.9H145V34.8h-15.1v12.8z"/><path class="st3" d="M129.5 34.4h15.9v13.7h-15.9z"/><path class="st4" d="M69.2 92.3v10h12.1v-10h3.2v23.9h-3.2V105H69.2v11.2h-3.3V92.3zM113.4 104c0 8.2-5.2 12.6-11.6 12.6-6.7 0-11.3-4.9-11.3-12.1 0-7.6 4.9-12.5 11.6-12.5 6.9-.1 11.3 4.9 11.3 12m-19.4.4c0 5.1 2.9 9.7 8 9.7s8-4.5 8-9.9c0-4.8-2.6-9.7-8-9.7-5.4-.1-8 4.7-8 9.9M140.6 105.7c-.2-3.3-.4-7.4-.4-10.3h-.1c-.9 2.8-1.9 5.8-3.2 9.1l-4.4 11.6H130l-4.1-11.4c-1.2-3.4-2.2-6.4-2.9-9.3h-.1c-.1 3-.3 6.9-.5 10.6l-.7 10.2h-3.1l1.7-23.9h4.1l4.3 11.5c1 2.9 1.9 5.6 2.5 8h.1c.7-2.4 1.6-5 2.7-8l4.5-11.5h4.1l1.6 23.9H141l-.4-10.5zM164.2 105h-9.7v8.6h10.8v2.6h-14.1V92.3h13.6v2.6h-10.3v7.5h9.7zM202.2 105.7c-.2-3.3-.4-7.4-.4-10.3h-.1c-.9 2.8-1.9 5.8-3.2 9.1l-4.4 11.6h-2.4l-4.1-11.4c-1.2-3.4-2.2-6.4-2.9-9.3h-.1c-.1 3-.3 6.9-.5 10.6l-.7 10.2h-3.1l1.7-23.9h4.1l4.3 11.5c1 2.9 1.9 5.6 2.5 8h.1c.7-2.4 1.6-5 2.7-8l4.5-11.5h4.1l1.6 23.9h-3.2l-.5-10.5zM234.3 104c0 8.2-5.2 12.6-11.6 12.6-6.7 0-11.3-4.9-11.3-12.1 0-7.6 4.9-12.5 11.6-12.5 6.8-.1 11.3 4.9 11.3 12m-19.5.4c0 5.1 2.9 9.7 8 9.7s8-4.5 8-9.9c0-4.8-2.6-9.7-8-9.7-5.3-.1-8 4.7-8 9.9M240.3 92.6c1.6-.3 4-.5 6.2-.5 3.5 0 5.7.6 7.2 1.9 1.2 1.1 2 2.7 2 4.6 0 3.1-2.1 5.2-4.7 6.1v.1c1.9.6 3 2.3 3.6 4.8.8 3.3 1.4 5.6 1.9 6.6h-3.3c-.4-.7-1-2.7-1.6-5.7-.7-3.3-2.1-4.5-5.1-4.6h-3v10.3h-3.2V92.6zm3.3 10.9h3.3c3.5 0 5.6-1.8 5.6-4.5 0-3.1-2.3-4.4-5.8-4.4-1.6 0-2.6.1-3.2.2v8.7zM267.3 94.9h-7.6v-2.6h18.5v2.6h-7.6v21.3h-3.3zM301 115.1c-1.5.5-4.3 1.3-7.7 1.3-3.8 0-6.9-.9-9.4-3.2-2.2-2-3.5-5.2-3.5-8.9 0-7.1 5.2-12.3 13.6-12.3 2.9 0 5.2.6 6.3 1.1l-.8 2.5c-1.3-.6-3-1-5.5-1-6.1 0-10.1 3.6-10.1 9.6 0 6.1 3.8 9.6 9.7 9.6 2.1 0 3.6-.3 4.3-.6v-7.1h-5.1v-2.5h8.3v11.5zM311.8 108.7l-2.6 7.5h-3.3l8.5-23.9h3.9l8.5 23.9h-3.5l-2.7-7.5h-8.8zm8.2-2.4l-2.5-6.9c-.6-1.6-.9-3-1.3-4.4h-.1c-.4 1.4-.7 2.9-1.3 4.3l-2.5 6.9h7.7zM350.9 115.1c-1.5.5-4.3 1.3-7.7 1.3-3.8 0-6.9-.9-9.4-3.2-2.2-2-3.5-5.2-3.5-8.9 0-7.1 5.2-12.3 13.6-12.3 2.9 0 5.2.6 6.3 1.1l-.8 2.5c-1.3-.6-3-1-5.5-1-6.1 0-10.1 3.6-10.1 9.6 0 6.1 3.8 9.6 9.7 9.6 2.1 0 3.6-.3 4.3-.6v-7.1h-5.1v-2.5h8.3v11.5zM370.6 105h-9.7v8.6h10.8v2.6h-14.1V92.3h13.6v2.6h-10.3v7.5h9.7zM375.4 120.6c.8-2.1 1.8-5.9 2.2-8.5l3.6-.4c-.9 3-2.5 6.9-3.6 8.6l-2.2.3zM396.9 92.3h3.3v21.3h10.7v2.6h-14zM416.3 92.3h3.3v21.3h10.7v2.6h-14zM451.8 115.4c-1.2.6-3.6 1.1-6.6 1.1-7.1 0-12.3-4.2-12.3-12.1 0-7.5 5.3-12.5 13.1-12.5 3.1 0 5.1.6 5.9 1.1l-.8 2.5c-1.2-.6-2.9-1-5-1-5.9 0-9.8 3.6-9.8 9.8 0 5.9 3.5 9.6 9.6 9.6 2 0 4-.4 5.3-1l.6 2.5z"/></svg>